<svg xmlns="http://www.w3.org/2000/svg">
   <symbol id="logo" viewBox="0 0 151 78">
      <path d="M3.168 37V3.4H9.504V17.272H21.984V3.4H28.32V37H21.984V23.032H9.504V37H3.168ZM32.364 37L41.196 3.4H52.236L61.068 37H54.54L52.716 29.608H40.716L38.892 37H32.364ZM42.204 23.752H51.228L47.148 7.384H46.284L42.204 23.752ZM14.832 77.672C12.24 77.672 9.952 77.208 7.968 76.28C5.984 75.352 4.432 74.024 3.312 72.296C2.192 70.568 1.632 68.488 1.632 66.056V64.712H7.872V66.056C7.872 68.072 8.496 69.592 9.744 70.616C10.992 71.608 12.688 72.104 14.832 72.104C17.008 72.104 18.624 71.672 19.68 70.808C20.768 69.944 21.312 68.84 21.312 67.496C21.312 66.568 21.04 65.816 20.496 65.24C19.984 64.664 19.216 64.2 18.192 63.848C17.2 63.464 15.984 63.112 14.544 62.792L13.44 62.552C11.136 62.04 9.152 61.4 7.488 60.632C5.856 59.832 4.592 58.792 3.696 57.512C2.832 56.232 2.4 54.568 2.4 52.52C2.4 50.472 2.88 48.728 3.84 47.288C4.832 45.816 6.208 44.696 7.968 43.928C9.76 43.128 11.856 42.728 14.256 42.728C16.656 42.728 18.784 43.144 20.64 43.976C22.528 44.776 24 45.992 25.056 47.624C26.144 49.224 26.688 51.24 26.688 53.672V55.112H20.448V53.672C20.448 52.392 20.192 51.368 19.68 50.6C19.2 49.8 18.496 49.224 17.568 48.872C16.64 48.488 15.536 48.296 14.256 48.296C12.336 48.296 10.912 48.664 9.984 49.4C9.088 50.104 8.64 51.08 8.64 52.328C8.64 53.16 8.848 53.864 9.264 54.44C9.712 55.016 10.368 55.496 11.232 55.88C12.096 56.264 13.2 56.6 14.544 56.888L15.648 57.128C18.048 57.64 20.128 58.296 21.888 59.096C23.68 59.896 25.072 60.952 26.064 62.264C27.056 63.576 27.552 65.256 27.552 67.304C27.552 69.352 27.024 71.16 25.968 72.728C24.944 74.264 23.472 75.48 21.552 76.376C19.664 77.24 17.424 77.672 14.832 77.672ZM32.2774 77V43.4H46.1014C48.2134 43.4 50.0694 43.832 51.6694 44.696C53.3014 45.528 54.5654 46.712 55.4614 48.248C56.3894 49.784 56.8534 51.608 56.8534 53.72V54.392C56.8534 56.472 56.3734 58.296 55.4134 59.864C54.4854 61.4 53.2054 62.6 51.5734 63.464C49.9734 64.296 48.1494 64.712 46.1014 64.712H38.6134V77H32.2774ZM38.6134 58.952H45.4774C46.9814 58.952 48.1974 58.536 49.1254 57.704C50.0534 56.872 50.5174 55.736 50.5174 54.296V53.816C50.5174 52.376 50.0534 51.24 49.1254 50.408C48.1974 49.576 46.9814 49.16 45.4774 49.16H38.6134V58.952ZM74.3021 77.672C70.0781 77.672 66.7181 76.52 64.2221 74.216C61.7261 71.88 60.4781 68.552 60.4781 64.232V56.168C60.4781 51.848 61.7261 48.536 64.2221 46.232C66.7181 43.896 70.0781 42.728 74.3021 42.728C78.5261 42.728 81.8861 43.896 84.3821 46.232C86.8781 48.536 88.1261 51.848 88.1261 56.168V64.232C88.1261 68.552 86.8781 71.88 84.3821 74.216C81.8861 76.52 78.5261 77.672 74.3021 77.672ZM74.3021 72.008C76.6701 72.008 78.5101 71.32 79.8221 69.944C81.1341 68.568 81.7901 66.728 81.7901 64.424V55.976C81.7901 53.672 81.1341 51.832 79.8221 50.456C78.5101 49.08 76.6701 48.392 74.3021 48.392C71.9661 48.392 70.1261 49.08 68.7821 50.456C67.4701 51.832 66.8141 53.672 66.8141 55.976V64.424C66.8141 66.728 67.4701 68.568 68.7821 69.944C70.1261 71.32 71.9661 72.008 74.3021 72.008ZM93.6836 77V43.4H108.276C110.388 43.4 112.228 43.768 113.796 44.504C115.364 45.24 116.58 46.28 117.444 47.624C118.308 48.968 118.74 50.552 118.74 52.376V52.952C118.74 54.968 118.26 56.6 117.3 57.848C116.34 59.096 115.156 60.008 113.748 60.584V61.448C115.028 61.512 116.02 61.96 116.724 62.792C117.428 63.592 117.78 64.664 117.78 66.008V77H111.444V66.92C111.444 66.152 111.236 65.528 110.82 65.048C110.436 64.568 109.78 64.328 108.852 64.328H100.02V77H93.6836ZM100.02 58.568H107.604C109.108 58.568 110.276 58.168 111.108 57.368C111.972 56.536 112.404 55.448 112.404 54.104V53.624C112.404 52.28 111.988 51.208 111.156 50.408C110.324 49.576 109.14 49.16 107.604 49.16H100.02V58.568ZM131.225 77V49.16H121.433V43.4H147.353V49.16H137.561V77H131.225Z" fill="#07272E"/>
      <rect x="71" y="30" width="77" height="7" fill="#07272E"/>
   </symbol>
   <symbol id="search" viewBox="0 0 38 38">
      <path d="M22.1635 24.4345L21.8468 24.1174L21.497 24.3976C20.4922 25.2026 19.3327 25.8433 18.0141 26.3173C16.7051 26.7879 15.3086 27.0247 13.821 27.0247C10.1316 27.0247 7.02789 25.7511 4.47915 23.1987C1.92891 20.6449 0.65625 17.5357 0.65625 13.8405C0.65625 10.1452 1.92891 7.03604 4.47915 4.48218C7.02789 1.92981 10.1316 0.65625 13.821 0.65625C17.5104 0.65625 20.6148 1.92976 23.1649 4.48209C25.7138 7.03593 26.9858 10.1451 26.9858 13.8405C26.9858 15.3304 26.7493 16.7292 26.2793 18.0402C25.8059 19.3608 25.1661 20.5221 24.3622 21.5284L24.0833 21.8775L24.399 22.1938L36.2243 34.0359C36.5131 34.3251 36.6562 34.6704 36.6562 35.1036C36.6562 35.524 36.5048 35.8905 36.1718 36.224C35.8892 36.5069 35.5303 36.6562 35.054 36.6562C34.5776 36.6562 34.2187 36.5069 33.9362 36.224L22.1635 24.4345ZM20.8767 20.9055L20.877 20.9052C22.8105 18.9675 23.7812 16.6028 23.7812 13.8405C23.7812 11.0781 22.8105 8.7134 20.877 6.77571L20.8767 6.77544C18.9418 4.83921 16.5801 3.86678 13.821 3.86678C11.0619 3.86678 8.70026 4.83921 6.76531 6.77544L6.76504 6.77571C4.83158 8.7134 3.8608 11.0781 3.8608 13.8405C3.8608 16.6028 4.83158 18.9675 6.76504 20.9052L6.76531 20.9055C8.70026 22.8417 11.0619 23.8141 13.821 23.8141C16.5801 23.8141 18.9418 22.8417 20.8767 20.9055Z" fill="#07272E" stroke="black"/>
   </symbol>
   <symbol id="heart" viewBox="0 0 41 35">
      <path d="M17.9406 31.9793L17.9406 31.9793L17.9474 31.9858C18.2916 32.3145 18.6957 32.5707 19.1347 32.7433C19.5702 32.9146 20.0338 33.0012 20.5 33C20.9662 33.0012 21.4298 32.9146 21.8653 32.7433C22.3043 32.5707 22.7084 32.3145 23.0526 31.9858L23.0526 31.9858L23.0594 31.9793L35.8782 19.6225L35.8782 19.6225L35.8847 19.6162C37.8713 17.6837 39 15.0583 39 12.3059C39 9.55362 37.8713 6.92823 35.8847 4.99573L35.8847 4.9957L35.8752 4.98655C33.8745 3.06588 31.18 2 28.3859 2C25.5919 2 22.8974 3.06588 20.8967 4.98654L20.8947 4.9885L20.5 5.36845L20.1053 4.9885L20.1033 4.98654C18.1026 3.06588 15.4081 2 12.6141 2C9.82002 2 7.12549 3.06588 5.1248 4.98654L5.12477 4.98651L5.1153 4.99573C3.12873 6.92823 2 9.55362 2 12.3059C2 15.0583 3.12873 17.6837 5.1153 19.6162L5.11529 19.6162L5.12184 19.6225L17.9406 31.9793Z" stroke="black" stroke-width="4"/>
   </symbol>
   <symbol id="user" viewBox="0 0 37 37">
      <path d="M7.1225 27.935C8.695 26.7325 10.4525 25.7841 12.395 25.0897C14.3375 24.3966 16.3725 24.05 18.5 24.05C20.6275 24.05 22.6625 24.3966 24.605 25.0897C26.5475 25.7841 28.305 26.7325 29.8775 27.935C30.9567 26.6708 31.7972 25.2371 32.3991 23.6337C32.9997 22.0304 33.3 20.3192 33.3 18.5C33.3 14.3992 31.8589 10.907 28.9766 8.02345C26.093 5.14115 22.6008 3.7 18.5 3.7C14.3992 3.7 10.9076 5.14115 8.0253 8.02345C5.14177 10.907 3.7 14.3992 3.7 18.5C3.7 20.3192 4.00093 22.0304 4.6028 23.6337C5.20343 25.2371 6.04333 26.6708 7.1225 27.935ZM18.5 20.35C16.6808 20.35 15.1466 19.7259 13.8972 18.4778C12.6491 17.2284 12.025 15.6942 12.025 13.875C12.025 12.0558 12.6491 10.5216 13.8972 9.2722C15.1466 8.02407 16.6808 7.4 18.5 7.4C20.3192 7.4 21.8534 8.02407 23.1028 9.2722C24.3509 10.5216 24.975 12.0558 24.975 13.875C24.975 15.6942 24.3509 17.2284 23.1028 18.4778C21.8534 19.7259 20.3192 20.35 18.5 20.35ZM18.5 37C15.9408 37 13.5358 36.5141 11.285 35.5422C9.03417 34.5716 7.07625 33.2538 5.41125 31.5888C3.74625 29.9238 2.42843 27.9658 1.4578 25.715C0.485934 23.4642 0 21.0592 0 18.5C0 15.9408 0.485934 13.5358 1.4578 11.285C2.42843 9.03417 3.74625 7.07625 5.41125 5.41125C7.07625 3.74625 9.03417 2.42782 11.285 1.45595C13.5358 0.485317 15.9408 0 18.5 0C21.0592 0 23.4642 0.485317 25.715 1.45595C27.9658 2.42782 29.9238 3.74625 31.5888 5.41125C33.2538 7.07625 34.5716 9.03417 35.5422 11.285C36.5141 13.5358 37 15.9408 37 18.5C37 21.0592 36.5141 23.4642 35.5422 25.715C34.5716 27.9658 33.2538 29.9238 31.5888 31.5888C29.9238 33.2538 27.9658 34.5716 25.715 35.5422C23.4642 36.5141 21.0592 37 18.5 37Z" fill="#07272E"/>
   </symbol>
   <symbol id="cart" viewBox="0 0 42 37">
      <path d="M40.7447 9.10804C40.3603 8.55305 39.7292 8.22211 39.055 8.22211H10.9621L8.59005 2.5283C7.94873 0.990764 6.46052 0 4.79555 0H0V4.11106H4.79555L14.547 27.5132C14.8656 28.2779 15.6138 28.7774 16.4442 28.7774H32.8884C33.7456 28.7774 34.5123 28.245 34.8145 27.4454L40.9811 11.0012C41.2174 10.3681 41.1291 9.66098 40.7447 9.10804ZM31.464 24.6663H17.8153L12.6764 12.3332H36.0889L31.464 24.6663Z" fill="#07272E"/>
      <path d="M17.4722 36.9999C19.1751 36.9999 20.5555 35.6195 20.5555 33.9166C20.5555 32.2138 19.1751 30.8333 17.4722 30.8333C15.7694 30.8333 14.3889 32.2138 14.3889 33.9166C14.3889 35.6195 15.7694 36.9999 17.4722 36.9999Z" fill="#07272E"/>
      <path d="M31.8604 36.9999C33.5632 36.9999 34.9437 35.6195 34.9437 33.9166C34.9437 32.2138 33.5632 30.8333 31.8604 30.8333C30.1575 30.8333 28.7771 32.2138 28.7771 33.9166C28.7771 35.6195 30.1575 36.9999 31.8604 36.9999Z" fill="#07272E"/>
   </symbol>
   <symbol id="linkedin" viewBox="0 0 24 24">
      <path d="M17.2727 -0.000366211H2.72734C2.00401 -0.000366211 1.3103 0.286978 0.79882 0.798454C0.287344 1.30993 0 2.00364 0 2.72698L0 17.2723C0 17.9956 0.287344 18.6893 0.79882 19.2008C1.3103 19.7123 2.00401 19.9996 2.72734 19.9996H17.2727C17.996 19.9996 18.6897 19.7123 19.2012 19.2008C19.7127 18.6893 20 17.9956 20 17.2723V2.72698C20 2.00364 19.7127 1.30993 19.2012 0.798454C18.6897 0.286978 17.996 -0.000366211 17.2727 -0.000366211V-0.000366211ZM6.81836 15.827C6.81857 15.9388 6.77437 16.0461 6.69549 16.1254C6.6166 16.2046 6.50948 16.2493 6.39766 16.2496H4.60078C4.54542 16.2498 4.49056 16.2391 4.43934 16.2181C4.38812 16.1971 4.34155 16.1662 4.30229 16.1271C4.26303 16.0881 4.23186 16.0417 4.21055 15.9906C4.18925 15.9395 4.17823 15.8847 4.17812 15.8293V8.29495C4.17812 8.18285 4.22265 8.07535 4.30192 7.99608C4.38118 7.91682 4.48869 7.87229 4.60078 7.87229H6.39766C6.50958 7.8726 6.61683 7.91725 6.6959 7.99647C6.77497 8.07569 6.81943 8.18302 6.81953 8.29495L6.81836 15.827ZM5.49766 7.15862C5.16048 7.15862 4.83088 7.05863 4.55054 6.8713C4.2702 6.68397 4.05171 6.41771 3.92269 6.1062C3.79368 5.79468 3.75994 5.45191 3.82575 5.12122C3.89156 4.79053 4.05395 4.48679 4.2924 4.2484C4.53084 4.01001 4.83463 3.84768 5.16533 3.78195C5.49603 3.71622 5.8388 3.75003 6.15028 3.87912C6.46177 4.0082 6.72798 4.22676 6.91524 4.50714C7.10251 4.78753 7.20242 5.11715 7.20234 5.45432C7.20234 5.67817 7.15825 5.89982 7.07257 6.10662C6.9869 6.31342 6.86133 6.50132 6.70303 6.65958C6.54473 6.81784 6.3568 6.94337 6.14998 7.029C5.94316 7.11462 5.7215 7.15867 5.49766 7.15862ZM16.2109 15.8563C16.2111 15.9072 16.2013 15.9576 16.182 16.0047C16.1627 16.0518 16.1343 16.0946 16.0984 16.1307C16.0625 16.1668 16.0198 16.1955 15.9729 16.2151C15.9259 16.2347 15.8755 16.2448 15.8246 16.2449H13.8887C13.786 16.2453 13.6873 16.2048 13.6145 16.1324C13.5416 16.0601 13.5004 15.9617 13.5 15.859V12.3281C13.5 11.8008 13.6562 10.0188 12.1215 10.0188C10.934 10.0188 10.6922 11.2383 10.6441 11.786V15.861C10.6443 15.9631 10.6041 16.0611 10.5325 16.1339C10.4608 16.2066 10.3634 16.2482 10.2613 16.2496H8.39531C8.29254 16.2496 8.19398 16.2088 8.12131 16.1361C8.04864 16.0635 8.00781 15.9649 8.00781 15.8621V8.26213C8.00745 8.2111 8.01717 8.16049 8.0364 8.11322C8.05564 8.06594 8.08401 8.02293 8.1199 7.98664C8.15579 7.95035 8.19849 7.9215 8.24555 7.90174C8.29261 7.88199 8.3431 7.87171 8.39414 7.87151H10.2613C10.3646 7.87203 10.4634 7.91341 10.5363 7.98661C10.6091 8.05981 10.65 8.15887 10.65 8.26213V8.91877C11.091 8.25471 11.7438 7.7469 13.1387 7.7469C16.2273 7.7469 16.2066 10.6309 16.2066 12.2153L16.2109 15.8563Z" fill="white"/>
   </symbol>
   <symbol id="facebook" viewBox="0 0 24 24">
      <path d="M17.0703 -0.000366211H2.92969C1.31439 -0.000366211 0 1.31403 0 2.92932V17.0699C0 18.6852 1.31439 19.9996 2.92969 19.9996H8.82812V12.9293H6.48438V9.4137H8.82812V7.03088C8.82812 5.09225 10.4051 3.51526 12.3438 3.51526H15.8984V7.03088H12.3438V9.4137H15.8984L15.3125 12.9293H12.3438V19.9996H17.0703C18.6856 19.9996 20 18.6852 20 17.0699V2.92932C20 1.31403 18.6856 -0.000366211 17.0703 -0.000366211Z" fill="white"/>
   </symbol>
   <symbol id="twitter" viewBox="0 0 24 24">
      <path d="M18.8998 1.09981C18.1666 0.366405 17.2832 -0.000366211 16.2503 -0.000366211H3.75003C2.71712 -0.000366211 1.83372 0.366405 1.10018 1.09981C0.366771 1.83335 0 2.71671 0 3.74966V16.2498C0 17.2826 0.366771 18.1661 1.10018 18.8996C1.83372 19.6332 2.71712 20 3.75003 20H16.2502C17.2831 20 18.1665 19.6332 18.8997 18.8996C19.6332 18.1661 20 17.2827 20 16.2498V3.74966C20 2.71671 19.6332 1.83321 18.8998 1.09981ZM15.2997 7.69512C15.3084 7.77324 15.3128 7.89022 15.3128 8.04675C15.3128 8.77596 15.2063 9.50731 14.9938 10.2406C14.7812 10.9743 14.4556 11.6774 14.0171 12.3501C13.579 13.0228 13.0559 13.6176 12.4484 14.134C11.8406 14.6503 11.1116 15.0628 10.2607 15.3708C9.41021 15.6792 8.49858 15.8334 7.52642 15.8334C6.0161 15.8334 4.61852 15.4251 3.33373 14.6094C3.54206 14.6354 3.7592 14.6484 3.98477 14.6484C5.24352 14.6484 6.37635 14.2578 7.38335 13.4763C6.79315 13.4679 6.26571 13.2858 5.80134 12.9295C5.33683 12.5736 5.01357 12.1223 4.83123 11.5754C5.05685 11.61 5.2261 11.6272 5.33893 11.6272C5.52988 11.6272 5.75131 11.5925 6.00296 11.5233C5.3693 11.4015 4.83552 11.0872 4.40148 10.5793C3.96735 10.0715 3.75035 9.49207 3.75035 8.84108V8.81504C4.21029 9.0319 4.64433 9.14473 5.05238 9.15353C4.26242 8.6239 3.86747 7.86446 3.86747 6.87488C3.86747 6.38871 3.99325 5.92867 4.245 5.49463C4.9307 6.33672 5.76421 7.00937 6.74499 7.51283C7.72586 8.01624 8.77632 8.2985 9.89606 8.3592C9.85274 8.19429 9.83098 7.98586 9.83098 7.7342C9.83098 6.97886 10.0979 6.33443 10.6318 5.80051C11.1656 5.26664 11.8102 4.99961 12.5653 4.99961C13.3641 4.99961 14.0283 5.28616 14.5578 5.85912C15.1568 5.74629 15.7386 5.52482 16.3027 5.19508C16.0857 5.86332 15.6818 6.37119 15.0918 6.71845C15.6559 6.64018 16.1809 6.49269 16.667 6.27569C16.3024 6.83123 15.8465 7.30431 15.2997 7.69512Z" fill="white"/>
   </symbol>
   <symbol id="instagram" viewBox="0 0 24 24">
      <path d="M11.9127 10.0143C11.9127 11.0199 11.0975 11.8352 10.0919 11.8352C9.08637 11.8352 8.27112 11.0199 8.27112 10.0143C8.27112 9.0088 9.08637 8.19354 10.0919 8.19354C11.0975 8.19354 11.9127 9.0088 11.9127 10.0143Z" fill="white"/>
      <path d="M13.1456 4.55194H7.04054C5.71165 4.55194 4.63065 5.63294 4.63065 6.96183V13.0669C4.63065 14.3958 5.71165 15.4768 7.04054 15.4768H13.1456C14.4745 15.4768 15.5555 14.3958 15.5555 13.0669V6.96183C15.5555 5.63294 14.4745 4.55194 13.1456 4.55194ZM10.0931 13.0267C8.43204 13.0267 7.08071 11.6754 7.08071 10.0144C7.08071 8.35332 8.43204 7.002 10.0931 7.002C11.7541 7.002 13.1054 8.35332 13.1054 10.0144C13.1054 11.6754 11.7541 13.0267 10.0931 13.0267ZM13.5472 7.16266C13.2145 7.16266 12.9448 6.89296 12.9448 6.56018C12.9448 6.22741 13.2145 5.95771 13.5472 5.95771C13.88 5.95771 14.1497 6.22741 14.1497 6.56018C14.1497 6.89296 13.88 7.16266 13.5472 7.16266Z" fill="white"/>
      <path d="M14.7266 -6.10352e-05H5.27344C2.36572 -6.10352e-05 0 2.36566 0 5.27338V14.7265C0 17.6342 2.36572 19.9999 5.27344 19.9999H14.7266C17.6343 19.9999 20 17.6342 20 14.7265V5.27338C20 2.36566 17.6343 -6.10352e-05 14.7266 -6.10352e-05ZM16.4844 12.9687C16.4844 14.9072 14.9072 16.4843 12.9688 16.4843H7.03125C5.09277 16.4843 3.51562 14.9072 3.51562 12.9687V7.03119C3.51562 5.09271 5.09277 3.51556 7.03125 3.51556H12.9688C14.9072 3.51556 16.4844 5.09271 16.4844 7.03119V12.9687Z" fill="white"/>
   </symbol>
   <symbol id="hero-number" viewBox="0 0 402 213">
      <g opacity="0.2">
         <path d="M129.865 213C104.192 213 81.524 208.904 61.8599 200.712C42.469 192.519 27.3112 180.64 16.3867 165.075C5.46225 149.237 0 129.848 0 106.91C0 83.9711 5.46225 64.5827 16.3867 48.7442C27.3112 32.6327 42.469 20.4808 61.8599 12.2885C81.524 4.09615 104.192 0 129.865 0C155.537 0 177.933 4.09615 197.051 12.2885C216.442 20.4808 231.599 32.6327 242.524 48.7442C253.448 64.5827 258.911 83.9711 258.911 106.91C258.911 129.848 253.448 149.237 242.524 165.075C231.599 180.64 216.442 192.519 197.051 200.712C177.933 208.904 155.537 213 129.865 213ZM129.865 172.038C143.794 172.038 156.357 169.581 167.554 164.665C179.025 159.477 188.038 152.104 194.593 142.546C201.42 132.715 204.834 120.837 204.834 106.91C204.834 92.9827 201.42 81.1038 194.593 71.2731C188.038 61.1692 179.162 53.5231 167.964 48.3346C156.766 43.1461 144.067 40.5519 129.865 40.5519C115.936 40.5519 103.236 43.1461 91.7657 48.3346C80.295 53.5231 71.1458 61.0327 64.318 70.8635C57.4901 80.6942 54.0762 92.7096 54.0762 106.91C54.0762 120.837 57.3536 132.715 63.9083 142.546C70.7361 152.104 79.8854 159.477 91.3561 164.665C102.827 169.581 115.663 172.038 129.865 172.038Z" fill="#CDFF9A"/>
         <path d="M290.98 49.9731V4.50577H402V208.085H348.743V49.9731H290.98Z" fill="#CDFF9A"/>
      </g>
   </symbol>
   <symbol id="arrow" viewBox="0 0 48 16">
      <path d="M0.999999 8H47" stroke="white" stroke-width="2" stroke-linecap="round" stroke-linejoin="round"/>
      <path d="M40 15L47 8L40 1" stroke="white" stroke-width="2" stroke-linecap="round" stroke-linejoin="round"/>
   </symbol>
   <symbol id="chevron-right" viewBox="0 0 26 26">
      <path d="M9.52881 4.9874L17.0018 12.5143L9.47485 19.9873" stroke="#07272E" stroke-width="1.5"/>
   </symbol>
</svg>